<mxfile host="65bd71144e">
    <diagram id="SP5J976Wwk-DimLmP-5a" name="Página-1">
        <mxGraphModel dx="1182" dy="938" grid="1" gridSize="10" guides="1" tooltips="1" connect="1" arrows="1" fold="1" page="1" pageScale="1" pageWidth="827" pageHeight="1169" background="none" math="0" shadow="0">
            <root>
                <mxCell id="0"/>
                <mxCell id="1" parent="0"/>
                <mxCell id="30" value="" style="edgeStyle=orthogonalEdgeStyle;html=1;endArrow=none;endFill=0;" edge="1" parent="1" source="3" target="29">
                    <mxGeometry relative="1" as="geometry"/>
                </mxCell>
                <mxCell id="3" value="&lt;div&gt;alfa&amp;nbsp; = degrees(acos((c**2 - a**2 - b**2)/(-2*a*b))))&lt;/div&gt;&lt;div&gt;&lt;br&gt;&lt;/div&gt;&lt;div&gt;beta&amp;nbsp; = degrees(acos((b**2 - a**2 - c**2)/(-2*a*c))))&lt;/div&gt;&lt;div&gt;&lt;br&gt;&lt;/div&gt;&lt;div&gt;theta = degrees(acos((a**2 - b**2 - c**2)/(-2*b*c))))&lt;/div&gt;" style="rounded=0;whiteSpace=wrap;html=1;fillColor=#6a00ff;fontColor=#ffffff;strokeColor=#3700CC;" vertex="1" parent="1">
                    <mxGeometry x="800" y="240" width="321" height="120" as="geometry"/>
                </mxCell>
                <mxCell id="11" value="" style="edgeStyle=none;html=1;" edge="1" parent="1" source="4" target="5">
                    <mxGeometry relative="1" as="geometry"/>
                </mxCell>
                <mxCell id="4" value="INICIO" style="ellipse;whiteSpace=wrap;html=1;fillColor=#a20025;fontColor=#ffffff;strokeColor=#6F0000;" vertex="1" parent="1">
                    <mxGeometry x="920.5" y="80" width="80" height="40" as="geometry"/>
                </mxCell>
                <mxCell id="9" value="" style="edgeStyle=none;html=1;" edge="1" parent="1" source="5">
                    <mxGeometry relative="1" as="geometry">
                        <mxPoint x="960.5" y="240" as="targetPoint"/>
                    </mxGeometry>
                </mxCell>
                <mxCell id="5" value="a, b, c" style="shape=parallelogram;perimeter=parallelogramPerimeter;whiteSpace=wrap;html=1;fixedSize=1;fillColor=#d80073;fontColor=#ffffff;strokeColor=#A50040;" vertex="1" parent="1">
                    <mxGeometry x="920.5" y="160" width="80" height="40" as="geometry"/>
                </mxCell>
                <mxCell id="15" value="" style="html=1;entryX=0.5;entryY=0;entryDx=0;entryDy=0;edgeStyle=orthogonalEdgeStyle;exitX=1;exitY=0.5;exitDx=0;exitDy=0;" edge="1" parent="1" source="12" target="14">
                    <mxGeometry relative="1" as="geometry"/>
                </mxCell>
                <mxCell id="18" style="edgeStyle=orthogonalEdgeStyle;html=1;exitX=0;exitY=0.5;exitDx=0;exitDy=0;entryX=0.5;entryY=0;entryDx=0;entryDy=0;" edge="1" parent="1" source="12" target="17">
                    <mxGeometry relative="1" as="geometry"/>
                </mxCell>
                <mxCell id="12" value="&lt;span&gt;alfa &amp;gt; 90 or&lt;/span&gt;&lt;br&gt;&lt;span&gt;beta &amp;gt; 90 or&lt;/span&gt;&lt;br&gt;&lt;span&gt;theta &amp;gt; 90&lt;/span&gt;" style="rhombus;whiteSpace=wrap;html=1;rounded=0;fillColor=#008a00;fontColor=#ffffff;strokeColor=#005700;" vertex="1" parent="1">
                    <mxGeometry x="1140" y="480" width="120" height="80" as="geometry"/>
                </mxCell>
                <mxCell id="14" value="triangle = &quot;Triángulo obtuso&quot;" style="whiteSpace=wrap;html=1;rounded=0;fillColor=#6a00ff;fontColor=#ffffff;strokeColor=#3700CC;" vertex="1" parent="1">
                    <mxGeometry x="1260" y="560" width="200" height="40" as="geometry"/>
                </mxCell>
                <mxCell id="20" value="" style="edgeStyle=orthogonalEdgeStyle;html=1;entryX=0.5;entryY=0;entryDx=0;entryDy=0;" edge="1" parent="1" source="17" target="19">
                    <mxGeometry relative="1" as="geometry"/>
                </mxCell>
                <mxCell id="22" style="edgeStyle=orthogonalEdgeStyle;html=1;exitX=0;exitY=0.5;exitDx=0;exitDy=0;entryX=0.5;entryY=0;entryDx=0;entryDy=0;" edge="1" parent="1" source="17" target="21">
                    <mxGeometry relative="1" as="geometry"/>
                </mxCell>
                <mxCell id="17" value="alfa &amp;lt; 90 and &lt;br&gt;beta &amp;lt; 90 and &lt;br&gt;theta &amp;lt; 90" style="rhombus;whiteSpace=wrap;html=1;rounded=0;fillColor=#008a00;fontColor=#ffffff;strokeColor=#005700;" vertex="1" parent="1">
                    <mxGeometry x="980" y="560" width="120" height="80" as="geometry"/>
                </mxCell>
                <mxCell id="23" style="edgeStyle=orthogonalEdgeStyle;html=1;exitX=0.5;exitY=1;exitDx=0;exitDy=0;entryX=0.5;entryY=1;entryDx=0;entryDy=0;endArrow=none;endFill=0;" edge="1" parent="1" source="19" target="21">
                    <mxGeometry relative="1" as="geometry">
                        <Array as="points">
                            <mxPoint x="1201" y="720"/>
                            <mxPoint x="880" y="720"/>
                        </Array>
                    </mxGeometry>
                </mxCell>
                <mxCell id="19" value="triangle = &quot;Triángulo agudo&quot;" style="whiteSpace=wrap;html=1;rounded=0;fillColor=#6a00ff;fontColor=#ffffff;strokeColor=#3700CC;" vertex="1" parent="1">
                    <mxGeometry x="1100.5" y="640" width="200" height="40" as="geometry"/>
                </mxCell>
                <mxCell id="21" value="triangle = &quot;Triángulo rectángulo&quot;" style="whiteSpace=wrap;html=1;rounded=0;fillColor=#6a00ff;fontColor=#ffffff;strokeColor=#3700CC;" vertex="1" parent="1">
                    <mxGeometry x="780" y="640" width="200" height="40" as="geometry"/>
                </mxCell>
                <mxCell id="24" style="edgeStyle=orthogonalEdgeStyle;html=1;exitX=0.5;exitY=1;exitDx=0;exitDy=0;entryX=0.5;entryY=1;entryDx=0;entryDy=0;endArrow=none;endFill=0;" edge="1" parent="1" source="14">
                    <mxGeometry relative="1" as="geometry">
                        <mxPoint x="1361" y="720" as="sourcePoint"/>
                        <mxPoint x="1040.5" y="720" as="targetPoint"/>
                        <Array as="points">
                            <mxPoint x="1362" y="600"/>
                            <mxPoint x="1362" y="760"/>
                            <mxPoint x="1041" y="760"/>
                        </Array>
                    </mxGeometry>
                </mxCell>
                <mxCell id="27" value="" style="edgeStyle=orthogonalEdgeStyle;html=1;endArrow=none;endFill=0;" edge="1" parent="1" source="25" target="26">
                    <mxGeometry relative="1" as="geometry"/>
                </mxCell>
                <mxCell id="25" value="triangle" style="shape=document;whiteSpace=wrap;html=1;boundedLbl=1;fillColor=#d80073;fontColor=#ffffff;strokeColor=#A50040;" vertex="1" parent="1">
                    <mxGeometry x="920" y="840" width="80" height="40" as="geometry"/>
                </mxCell>
                <mxCell id="26" value="FIN" style="ellipse;whiteSpace=wrap;html=1;fillColor=#a20025;fontColor=#ffffff;strokeColor=#6F0000;" vertex="1" parent="1">
                    <mxGeometry x="920" y="920" width="80" height="40" as="geometry"/>
                </mxCell>
                <mxCell id="31" style="edgeStyle=orthogonalEdgeStyle;html=1;exitX=1;exitY=0.5;exitDx=0;exitDy=0;entryX=0.5;entryY=0;entryDx=0;entryDy=0;endArrow=classic;endFill=1;" edge="1" parent="1" source="29" target="12">
                    <mxGeometry relative="1" as="geometry"/>
                </mxCell>
                <mxCell id="33" style="edgeStyle=orthogonalEdgeStyle;html=1;exitX=0;exitY=0.5;exitDx=0;exitDy=0;entryX=0.5;entryY=0;entryDx=0;entryDy=0;endArrow=classic;endFill=1;" edge="1" parent="1" source="29" target="32">
                    <mxGeometry relative="1" as="geometry"/>
                </mxCell>
                <mxCell id="29" value="a+b&amp;gt;c and &lt;br&gt;a+c&amp;gt;b and &lt;br&gt;b+c&amp;gt;a" style="rhombus;whiteSpace=wrap;html=1;rounded=0;fillColor=#008a00;fontColor=#ffffff;strokeColor=#005700;" vertex="1" parent="1">
                    <mxGeometry x="900" y="400" width="120" height="80" as="geometry"/>
                </mxCell>
                <mxCell id="32" value="triangle = &quot;Triángulo no válido&quot;" style="whiteSpace=wrap;html=1;rounded=0;fillColor=#6a00ff;fontColor=#ffffff;strokeColor=#3700CC;" vertex="1" parent="1">
                    <mxGeometry x="620" y="480" width="200" height="40" as="geometry"/>
                </mxCell>
                <mxCell id="35" style="edgeStyle=orthogonalEdgeStyle;html=1;exitX=0.5;exitY=1;exitDx=0;exitDy=0;entryX=0.5;entryY=1;entryDx=0;entryDy=0;endArrow=none;endFill=0;" edge="1" parent="1" target="32">
                    <mxGeometry relative="1" as="geometry">
                        <mxPoint x="1200.2" y="760" as="sourcePoint"/>
                        <mxPoint x="879.7" y="760" as="targetPoint"/>
                        <Array as="points">
                            <mxPoint x="1200" y="800"/>
                            <mxPoint x="720" y="800"/>
                        </Array>
                    </mxGeometry>
                </mxCell>
                <mxCell id="36" value="" style="endArrow=classic;html=1;entryX=0.5;entryY=0;entryDx=0;entryDy=0;" edge="1" parent="1" target="25">
                    <mxGeometry width="50" height="50" relative="1" as="geometry">
                        <mxPoint x="960" y="800" as="sourcePoint"/>
                        <mxPoint x="1010" y="760" as="targetPoint"/>
                    </mxGeometry>
                </mxCell>
            </root>
        </mxGraphModel>
    </diagram>
</mxfile>